<?xml version="1.0" encoding="utf-8"?>
<!-- Generator: Adobe Illustrator 16.0.0, SVG Export Plug-In . SVG Version: 6.00 Build 0)  -->
<!DOCTYPE svg PUBLIC "-//W3C//DTD SVG 1.1//EN" "http://www.w3.org/Graphics/SVG/1.1/DTD/svg11.dtd">
<svg version="1.1" xmlns="http://www.w3.org/2000/svg" xmlns:xlink="http://www.w3.org/1999/xlink" x="0px" y="0px"
	 width="100%" height="100%" viewBox="0 0 428.979 281.404" style="enable-background:new 0 0 428.979 281.404;"
	 xml:space="preserve">
<style type="text/css">
<![CDATA[
	.st0{display:inline;fill:none;stroke:#FFFF00;stroke-width:0.469;stroke-miterlimit:10;}
	.st1{display:inline;fill:none;stroke:#F91100;stroke-width:0.469;stroke-miterlimit:10;}
	.st2{display:inline;opacity:1;fill:none;stroke:#000000;stroke-miterlimit:10;}
	.st3{display:inline;fill:none;stroke:#0000FF;stroke-width:0.469;stroke-miterlimit:10;}
	.st4{display:inline;fill:none;stroke:#80FF00;stroke-width:0.469;stroke-miterlimit:10;}
	.st6{fill:none;stroke:#000000;stroke-miterlimit:10;}
	.st7{fill:none;stroke:#80FF01;stroke-width:0.469;stroke-miterlimit:10;}
	.st8{display:inline;fill:none;stroke:#FF0000;stroke-width:0.469;stroke-miterlimit:10;}
	.st9{fill:none;stroke:#828BFF;stroke-width:0.469;stroke-miterlimit:10;}
	.st10{fill:none;stroke:#FFFF00;stroke-width:0.469;stroke-miterlimit:10;}
	.st11{fill:none;stroke:#F91100;stroke-width:0.469;stroke-miterlimit:10;}
	.st12{display:inline;fill:none;stroke:#FF00FF;stroke-width:0.469;stroke-miterlimit:10;}
	.st13{display:none;}
	.st14{display:inline;fill:none;stroke:#80FF01;stroke-width:0.469;stroke-miterlimit:10;}
	.st15{display:inline;fill:none;stroke:#828BFF;stroke-width:0.469;stroke-miterlimit:10;}
]]>
</style>
<g id="Pav1" class="st13" style="display:inline">
	<rect id="s1036" x="32.988" y="21.888" class="st0" width="11.325" height="22.605"/>
	<rect id="s1035" x="44.313" y="21.859" class="st0" width="8.739" height="22.605"/>
	<rect id="s1034" x="53.052" y="21.888" class="st0" width="8.739" height="22.605"/>
	<rect id="s1033" x="61.792" y="21.888" class="st0" width="8.489" height="22.605"/>
	<rect id="s1032" x="70.28" y="21.859" class="st8" width="8.818" height="22.605"/>
	<rect id="s1031" x="79.098" y="21.859" class="st12" width="8.214" height="22.605"/>
	<rect id="s1030" x="87.312" y="21.859" class="st14" width="8.422" height="22.605"/>
	<rect id="s1029" x="95.734" y="21.859" class="st3" width="8.76" height="22.605"/>
	<rect id="s1028" x="104.726" y="21.859" class="st3" width="8.76" height="22.605"/>
	<rect id="s1027" x="113.485" y="21.859" class="st4" width="36.807" height="22.605"/>
	<rect id="s1001" x="178.938" y="52.698" class="st0" width="22.482" height="28.362"/>
	<rect id="s1002" x="178.938" y="81.192" class="st0" width="22.482" height="34.674"/>
	<rect id="s1003" x="178.938" y="115.866" class="st0" width="22.482" height="19.527"/>
	<rect id="s1004" x="178.938" y="135.394" class="st0" width="22.482" height="8.929"/>
	<rect id="s1005" x="178.938" y="144.237" class="st0" width="22.482" height="17.155"/>
	<rect id="s1006" x="178.938" y="170.154" class="st0" width="22.482" height="20.08"/>
	<rect id="s1007" x="178.938" y="189.837" class="st0" width="22.482" height="17.349"/>
	<rect id="s1008" x="178.938" y="207.186" class="st0" width="22.482" height="19.993"/>
	<rect id="s1009" x="170.273" y="235.761" class="st0" width="37.223" height="22.832"/>
	<rect id="s1010" x="207.497" y="235.761" class="st0" width="31.463" height="22.832"/>
	<rect id="s1011" x="238.959" y="235.761" class="st0" width="31.463" height="22.832"/>
	<rect id="s1012" x="282.118" y="181.529" class="st0" width="22.655" height="42.75"/>
	<rect id="s1013" x="282.118" y="170.154" class="st0" width="22.655" height="11.375"/>
	<rect id="s1014" x="282.118" y="124.197" class="st0" width="22.655" height="37.332"/>
	<rect id="s1015" x="282.118" y="90.121" class="st0" width="22.655" height="33.921"/>
	<rect id="s1016" x="282.118" y="52.698" class="st0" width="22.655" height="37.423"/>
	<rect id="s1017" x="304.773" y="170.154" class="st0" width="34.386" height="19.525"/>
	<rect id="s1018" x="339.159" y="170.154" class="st0" width="34.386" height="19.525"/>
	<rect id="s1019" x="385.034" y="119.043" class="st0" width="22.398" height="36.268"/>
	<rect id="s1020" x="385.034" y="87.25" class="st0" width="22.398" height="31.694"/>
	<rect id="s1021" x="385.034" y="56.018" class="st0" width="22.398" height="31.233"/>
	<rect id="s1022" x="342.248" y="21.859" class="st0" width="30.726" height="22.606"/>
	<rect id="s1023" x="305.05" y="21.859" class="st0" width="37.089" height="22.606"/>
	<rect id="s1024" x="267.861" y="21.859" class="st0" width="37.189" height="22.606"/>
	<rect id="s1025" x="235.916" y="21.859" class="st0" width="31.945" height="22.606"/>
	<rect id="s1026" x="204.908" y="21.859" class="st0" width="30.884" height="22.606"/>
	<rect id="s1047" x="30.329" y="170.637" class="st0" width="11.044" height="18.95"/>
	<rect id="s1048" x="41.373" y="170.637" class="st0" width="14.772" height="18.95"/>
	<rect id="s1049" x="56.145" y="170.637" class="st0" width="11.199" height="18.95"/>
	<polygon id="ContornoPv1" class="st2" points="29.92,190.404 29.92,121.404 64.249,121.404 64.249,89.867 29.92,89.867 
		29.92,21.859 373.424,21.859 373.424,35.534 379.193,35.534 396.356,49.828 396.356,55.54 407.78,55.54 407.78,155.597 
		393.313,155.597 393.313,161.393 379.501,178.557 373.481,178.557 373.481,190.178 304.796,190.178 304.796,224.309 
		290.502,224.309 290.502,230.049 276.208,244.343 270.469,244.343 270.469,258.833 170.102,258.833 170.102,190.009 
		133.749,190.009 133.749,224.956 66.725,224.956 66.725,190.404 	"/>
</g>
<g id="Pav2" class="st13">
	<rect id="s2039" x="65.093" y="21.888" class="st15" width="14.177" height="22.605"/>
	<rect id="s2038" x="79.27" y="21.844" class="st1" width="14.091" height="22.605"/>
	<rect id="s2037" x="93.361" y="21.859" class="st4" width="14.507" height="22.605"/>
	<rect id="s2036" x="107.868" y="21.888" class="st4" width="14.208" height="22.605"/>
	<rect id="s2035" x="122.075" y="21.859" class="st4" width="45.741" height="22.605"/>
	<rect id="s2001" x="178.938" y="52.698" class="st0" width="22.482" height="11.332"/>
	<rect id="s2002" x="178.938" y="63.854" class="st0" width="22.482" height="22.131"/>
	<rect id="s2003" x="178.938" y="85.986" class="st0" width="22.482" height="25.167"/>
	<rect id="s2004" x="178.938" y="111.153" class="st0" width="22.482" height="19.667"/>
	<rect id="s2005" x="178.938" y="130.82" class="st0" width="22.482" height="27.784"/>
	<rect id="s2006" x="178.938" y="170.154" class="st14" width="22.482" height="29.5"/>
	<rect id="s2007" x="178.938" y="199.654" class="st14" width="22.482" height="27.524"/>
	<rect id="s2008" x="170.273" y="235.761" class="st14" width="37.223" height="22.832"/>
	<rect id="s2009" x="207.497" y="235.761" class="st1" width="31.463" height="22.832"/>
	<rect id="s2010" x="238.959" y="235.761" class="st1" width="31.463" height="22.832"/>
	<rect id="s2011" x="282.118" y="205.363" class="st1" width="22.655" height="18.916"/>
	<rect id="s2012" x="282.118" y="186.447" class="st1" width="22.655" height="18.916"/>
	<rect id="s2017" x="282.118" y="170.154" class="st1" width="11.327" height="16.293"/>
	<rect id="s2018" x="293.446" y="170.154" class="st1" width="11.327" height="16.293"/>
	<rect id="s2013" x="282.118" y="125.57" class="st1" width="22.655" height="35.959"/>
	<rect id="s2014" x="282.118" y="100.904" class="st1" width="22.655" height="24.667"/>
	<rect id="s2015" x="282.118" y="77.448" class="st1" width="22.655" height="23.456"/>
	<rect id="s2016" x="282.118" y="52.698" class="st1" width="22.655" height="24.75"/>
	<rect id="s2019" x="304.773" y="170.154" class="st1" width="11.886" height="19.525"/>
	<rect id="s2020" x="316.659" y="170.154" class="st1" width="11.886" height="19.525"/>
	<rect id="s2021" x="328.544" y="170.154" class="st1" width="11.886" height="19.525"/>
	<rect id="s2022" x="340.43" y="170.154" class="st1" width="11.886" height="19.525"/>
	<rect id="s2023" x="352.316" y="170.154" class="st1" width="21.229" height="19.525"/>
	<rect id="s2024" x="385.034" y="130.402" class="st15" width="22.398" height="24.908"/>
	<rect id="s2025" x="385.034" y="104.902" class="st15" width="22.398" height="25.5"/>
	<rect id="s2026" x="385.034" y="89.402" class="st15" width="22.398" height="15.5"/>
	<rect id="s2027" x="385.034" y="55.54" class="st15" width="22.398" height="33.863"/>
	<rect id="s2030" x="308.346" y="21.859" class="st15" width="25.771" height="22.606"/>
	<rect id="s2029" x="334.117" y="21.859" class="st15" width="25.771" height="22.606"/>
	<rect id="s2028" x="359.887" y="21.859" class="st15" width="13.537" height="22.606"/>
	<rect id="s2031" x="282.571" y="21.859" class="st14" width="25.775" height="22.606"/>
	<rect id="s2032" x="245.382" y="21.859" class="st14" width="37.189" height="22.606"/>
	<rect id="s2033" x="225.086" y="21.859" class="st14" width="20.296" height="22.606"/>
	<rect id="s2034" x="204.908" y="21.859" class="st14" width="20.178" height="22.606"/>
	<rect id="s2076" x="30.329" y="170.637" class="st15" width="36.331" height="18.95"/>
	<rect id="s2077" x="133.786" y="170.637" class="st1" width="35.811" height="18.95"/>
	<polygon id="ContornoPv2" class="st2" points="29.92,190.404 29.92,121.404 64.249,121.404 64.249,89.867 29.92,89.867 
		29.92,21.859 373.424,21.859 373.424,35.534 379.193,35.534 396.356,49.828 396.356,55.54 407.78,55.54 407.78,155.597 
		393.313,155.597 393.313,161.393 379.501,178.557 373.481,178.557 373.481,190.178 304.796,190.178 304.796,224.309 
		290.502,224.309 290.502,230.049 276.208,244.343 270.469,244.343 270.469,258.833 170.102,258.833 170.102,190.009 
		133.749,190.009 133.749,224.956 66.725,224.956 66.725,190.404 	"/>
</g>
<g id="Pav3" class="st13">
	<rect id="s3056" x="29.92" y="21.888" class="st11" width="26.508" height="22.605"/>
	<rect id="s3055" x="56.428" y="21.844" class="st11" width="19.731" height="22.605"/>
	<rect id="s3054" x="76.159" y="21.844" class="st11" width="20.209" height="22.605"/>
	<rect id="s3053" x="96.368" y="21.888" class="st11" width="19.97" height="22.605"/>
	<rect id="s3052e3051" x="116.338" y="21.859" class="st11" width="34.559" height="22.605"/>
	<rect id="s3050" x="150.897" y="21.859" class="st11" width="17.279" height="22.605"/>
	<rect id="s3001" x="178.938" y="52.779" class="st11" width="22.482" height="36.793"/>
	<rect id="s3002" x="178.938" y="89.572" class="st11" width="22.482" height="11.916"/>
	<rect id="s3004" x="178.938" y="112.905" class="st11" width="22.482" height="13.916"/>
	<rect id="s3003" x="178.938" y="101.488" class="st11" width="22.482" height="11.416"/>
	<rect id="s3005" x="178.938" y="126.821" class="st11" width="22.482" height="17.001"/>
	<rect id="s3007_1_" x="178.938" y="143.822" class="st11" width="11.958" height="17.707"/>
	<rect id="s3006" x="190.896" y="143.822" class="st11" width="10.523" height="17.707"/>
	<rect id="s3012" x="178.938" y="202.821" class="st11" width="22.482" height="12.083"/>
	<rect id="s3011" x="178.938" y="192.489" class="st11" width="22.482" height="10.332"/>
	<rect id="s3010" x="178.938" y="182.157" class="st11" width="22.482" height="10.332"/>
	<rect id="s3008" x="178.938" y="170.637" class="st11" width="11.241" height="11.521"/>
	<rect id="s3007" x="190.178" y="170.637" class="st11" width="11.241" height="11.521"/>
	<rect id="s3013" x="178.938" y="214.904" class="st11" width="22.482" height="12.274"/>
	<rect id="s3016" x="217.146" y="235.761" class="st7" width="19.875" height="22.832"/>
	<rect id="s3015" x="193.521" y="235.761" class="st11" width="23.562" height="22.832"/>
	<rect id="s3014" x="170.102" y="235.761" class="st11" width="23.419" height="22.832"/>
	<rect id="s3017" x="237.021" y="235.761" class="st7" width="18.875" height="22.832"/>
	<rect id="s3018" x="255.896" y="235.761" class="st7" width="14.526" height="22.832"/>
	<rect id="s3019" x="282.118" y="200.821" class="st7" width="22.655" height="23.458"/>
	<rect id="s3020" x="282.118" y="170.154" class="st7" width="22.655" height="30.667"/>
	<rect id="s3028" x="304.773" y="170.154" class="st7" width="12.373" height="19.525"/>
	<rect id="s3022" x="282.118" y="149.404" class="st7" width="22.655" height="12.125"/>
	<rect id="s3023" x="282.118" y="138.279" class="st7" width="22.655" height="11.125"/>
	<rect id="s3024" x="282.118" y="123.904" class="st7" width="22.655" height="14.375"/>
	<rect id="s3025" x="282.118" y="103.904" class="st7" width="22.655" height="20"/>
	<rect id="s3026" x="282.118" y="83.904" class="st7" width="22.655" height="20"/>
	<rect id="s3027" x="282.118" y="63.904" class="st7" width="22.655" height="20"/>
	<rect id="s3045" x="282.118" y="52.779" class="st9" width="22.655" height="11.125"/>
	<rect id="s3029" x="317.146" y="170.154" class="st9" width="11.398" height="19.525"/>
	<rect id="s3030" x="328.583" y="170.154" class="st9" width="10.625" height="19.525"/>
	<rect id="s3031" x="339.208" y="170.154" class="st9" width="11.5" height="19.525"/>
	<rect id="s3032" x="350.708" y="170.154" class="st9" width="11.438" height="19.525"/>
	<rect id="s3033" x="362.146" y="170.154" class="st9" width="11.398" height="19.525"/>
	<rect id="s3034" x="385.034" y="144.404" class="st9" width="22.398" height="10.906"/>
	<rect id="s3035" x="385.034" y="132.31" class="st9" width="22.398" height="12.095"/>
	<rect id="s3036" x="385.034" y="118.349" class="st9" width="22.398" height="13.961"/>
	<rect id="s3037" x="385.034" y="101.129" class="st9" width="22.398" height="17.219"/>
	<rect id="s3038" x="385.034" y="55.54" class="st9" width="22.398" height="45.59"/>
	<rect id="s3044" x="288.001" y="21.859" class="st9" width="14.164" height="22.606"/>
	<rect id="s3043" x="302.166" y="21.859" class="st9" width="14.469" height="22.606"/>
	<rect id="s3042" x="316.634" y="21.859" class="st9" width="14.229" height="22.606"/>
	<rect id="s3041" x="330.864" y="21.859" class="st9" width="14.164" height="22.606"/>
	<rect id="s3040" x="345.028" y="21.859" class="st9" width="14.469" height="22.606"/>
	<rect id="s3039" x="359.497" y="21.859" class="st9" width="14.229" height="22.606"/>
	<rect id="s3046" x="262.226" y="21.859" class="st9" width="25.776" height="22.606"/>
	<rect id="s3047" x="239.386" y="21.859" class="st9" width="22.84" height="22.606"/>
	<rect id="s3048" x="216.666" y="21.859" class="st9" width="22.72" height="22.606"/>
	<rect id="s3049" x="204.908" y="21.859" class="st9" width="11.757" height="22.606"/>
	<rect id="s3118" x="50.396" y="170.637" class="st10" width="34.187" height="18.95"/>
	<rect id="s3117" x="33.302" y="170.637" class="st10" width="17.094" height="18.95"/>
	<rect id="s3009A" x="150.479" y="170.637" class="st11" width="19.667" height="18.95"/>
	<rect id="s3009Be3009C" x="119.646" y="170.637" class="st11" width="30.833" height="18.95"/>
	<rect id="s3124" x="99.146" y="170.637" class="st10" width="20.5" height="18.95"/>
	<rect id="s3123" x="113.771" y="189.587" class="st10" width="19.875" height="34.692"/>
	<rect id="s3122" x="99.146" y="201.654" class="st10" width="14.563" height="22.625"/>
	<rect id="s3121" x="84.583" y="206.934" class="st10" width="14.563" height="17.346"/>
	<rect id="s3120" x="66.725" y="201.654" class="st10" width="17.858" height="22.625"/>
	<rect id="s3119" x="66.725" y="189.587" class="st10" width="17.858" height="12.067"/>
	<polygon id="ContornoPv3" class="st2" points="29.92,190.404 29.92,121.404 64.249,121.404 64.249,89.867 29.92,89.867 
		29.92,21.859 373.424,21.859 373.424,35.534 379.193,35.534 396.356,49.828 396.356,55.54 407.78,55.54 407.78,155.597 
		393.313,155.597 393.313,161.393 379.501,178.557 373.481,178.557 373.481,190.178 304.796,190.178 304.796,224.309 
		290.502,224.309 290.502,230.049 276.208,244.343 270.469,244.343 270.469,258.833 170.102,258.833 170.102,190.009 
		133.749,190.009 133.749,224.956 66.725,224.956 66.725,190.404 	"/>
</g>
<g id="Pav4" class="st13">
	<rect id="s4112" x="29.92" y="21.888" class="st14" width="10.226" height="12.933"/>
	<rect id="s4110" x="40.146" y="21.844" class="st14" width="11.5" height="12.977"/>
	<rect id="s4108" x="51.646" y="21.844" class="st14" width="11.667" height="12.977"/>
	<rect id="s4106" x="63.312" y="21.888" class="st14" width="11.425" height="12.933"/>
	<rect id="s4104" x="74.738" y="21.859" class="st14" width="11.408" height="12.962"/>
	<rect id="s4111" x="29.92" y="40.731" class="st14" width="12.862" height="11.65"/>
	<rect id="s4109" x="42.782" y="40.691" class="st14" width="11.549" height="11.689"/>
	<rect id="s4107" x="54.332" y="40.691" class="st14" width="14.693" height="11.689"/>
	<rect id="s4105" x="69.025" y="40.731" class="st14" width="14.519" height="11.65"/>
	<rect id="s4103" x="83.544" y="40.705" class="st14" width="14.593" height="11.676"/>
	<rect id="s4100" x="98.137" y="40.691" class="st14" width="11.246" height="11.689"/>
	<rect id="s4098" x="109.383" y="40.691" class="st14" width="11.5" height="11.689"/>
	<rect id="s4096" x="120.883" y="40.731" class="st14" width="11.612" height="11.65"/>
	<rect id="s4194" x="132.496" y="40.705" class="st14" width="11.551" height="11.676"/>
	<rect id="s4102" x="98.137" y="21.888" class="st14" width="11.315" height="12.933"/>
	<rect id="s4101" x="109.383" y="21.844" class="st14" width="11.5" height="12.977"/>
	<rect id="s4099" x="120.883" y="21.844" class="st14" width="8.625" height="12.977"/>
	<rect id="s4097" x="129.508" y="21.866" class="st14" width="8.675" height="12.955"/>
	<rect id="s4095" x="138.183" y="21.852" class="st14" width="9.04" height="12.969"/>
	<rect id="s4092" x="205.146" y="21.888" class="st14" width="11" height="12.933"/>
	<rect id="s4091" x="216.146" y="21.874" class="st14" width="11.408" height="12.962"/>
	<rect id="sdm01" x="213.312" y="40.647" class="st14" width="14.242" height="11.65"/>
	<rect id="sdm02" x="227.554" y="40.621" class="st14" width="14.61" height="11.676"/>
	<rect id="sdm03" x="242.164" y="40.607" class="st14" width="11.419" height="11.689"/>
	<rect id="sdm04" x="253.583" y="40.607" class="st14" width="11.594" height="11.689"/>
	<rect id="sdcc01" x="265.177" y="40.647" class="st14" width="20.053" height="11.65"/>
	<rect id="s4089" x="227.375" y="21.888" class="st14" width="8.896" height="12.933"/>
	<rect id="s4087" x="236.271" y="21.844" class="st14" width="11.5" height="12.977"/>
	<rect id="s4085" x="247.771" y="21.844" class="st14" width="11.625" height="12.977"/>
	<rect id="s4083" x="259.396" y="21.877" class="st14" width="11.562" height="12.955"/>
	<rect id="s4082" x="270.958" y="21.852" class="st14" width="11.16" height="12.969"/>
	<rect id="s4014" x="193.083" y="245.693" class="st14" width="11.562" height="13.126"/>
	<rect id="s4016" x="204.646" y="245.68" class="st14" width="11.453" height="13.153"/>
	<rect id="s4012" x="170.102" y="245.678" class="st14" width="11.545" height="13.126"/>
	<rect id="s4013" x="181.647" y="245.664" class="st14" width="11.436" height="13.153"/>
	<rect id="s4018" x="216.099" y="245.68" class="st14" width="8.677" height="13.153"/>
	<rect id="s4020" x="224.776" y="245.649" class="st14" width="11.459" height="13.184"/>
	<rect id="s4022" x="236.235" y="245.635" class="st14" width="11.674" height="13.198"/>
	<rect id="s4024" x="247.909" y="245.657" class="st14" width="11.592" height="13.198"/>
	<rect id="s4025" x="259.475" y="245.68" class="st14" width="10.788" height="13.153"/>
	<rect id="s4015" x="201.419" y="228.419" class="st14" width="11.758" height="11.424"/>
	<rect id="s4017" x="213.177" y="228.381" class="st14" width="11.599" height="11.462"/>
	<rect id="s4019" x="224.776" y="228.381" class="st14" width="11.589" height="11.462"/>
	<rect id="s4021" x="236.365" y="228.409" class="st14" width="11.544" height="11.443"/>
	<rect id="s4023" x="247.909" y="228.387" class="st14" width="11.566" height="11.456"/>
	<rect id="s4033" x="274.283" y="150.425" class="st14" width="10.935" height="11.234"/>
	<rect id="s4035" x="274.27" y="138.822" class="st14" width="10.96" height="11.603"/>
	<rect id="s4037" x="274.283" y="127.344" class="st14" width="10.935" height="11.479"/>
	<rect id="s4039" x="274.246" y="115.928" class="st14" width="10.972" height="11.416"/>
	<rect id="s4043" x="274.246" y="78.267" class="st14" width="10.972" height="11.478"/>
	<rect id="s4041" x="274.246" y="89.744" class="st14" width="10.972" height="14.407"/>
	<rect id="s4045" x="274.273" y="66.754" class="st14" width="10.954" height="11.513"/>
	<rect id="s4047" x="274.251" y="52.297" class="st14" width="10.966" height="14.457"/>
	<rect id="s4093" x="147.223" y="21.859" class="st14" width="19.685" height="22.156"/>
	<rect id="s4001" x="178.938" y="52.779" class="st14" width="22.482" height="19.626"/>
	<rect id="s4003" x="178.938" y="72.405" class="st14" width="22.482" height="35"/>
	<rect id="s4005" x="178.938" y="118.529" class="st14" width="22.482" height="11.625"/>
	<rect id="s4004" x="178.938" y="107.405" class="st14" width="22.482" height="11.124"/>
	<rect id="s4006" x="178.938" y="130.154" class="st14" width="22.482" height="20.25"/>
	<rect id="s4007" x="178.938" y="150.404" class="st14" width="8.208" height="11.125"/>
	<rect id="s4221" x="29.92" y="170.637" class="st0" width="13.095" height="19.768"/>
	<rect id="s4008" x="187.146" y="150.404" class="st14" width="14.273" height="11.125"/>
	<rect id="s4009" x="178.938" y="170.637" class="st14" width="11.241" height="11.521"/>
	<rect id="sdcc03" x="190.178" y="170.637" class="st14" width="11.241" height="11.521"/>
	<rect id="s4011" x="178.938" y="182.157" class="st14" width="22.482" height="57.695"/>
	<rect id="s4026" x="291.565" y="216.907" class="st14" width="13.208" height="7.372"/>
	<rect id="s4028" x="291.565" y="207.907" class="st14" width="13.208" height="9"/>
	<rect id="s4030" x="291.565" y="198.967" class="st14" width="13.208" height="8.94"/>
	<rect id="s4027" x="274.283" y="199.342" class="st14" width="10.935" height="14.562"/>
	<rect id="s4029" x="274.283" y="184.904" class="st14" width="10.935" height="14.438"/>
	<rect id="s4031" x="274.283" y="170.736" class="st14" width="10.935" height="14.168"/>
	<rect id="s4051" x="291.565" y="170.736" class="st15" width="8.284" height="18.943"/>
	<rect id="sde01" x="291.565" y="190.086" class="st15" width="13.208" height="8.881"/>
	<polygon id="s4052" class="st15" points="317.021,189.68 299.849,189.68 299.849,170.736 317.021,170.736 319.896,170.736 
		319.896,179.217 317.021,179.217 	"/>
	<rect id="sde02" x="325.708" y="170.736" class="st15" width="14.643" height="18.943"/>
	<rect id="sde03" x="317.021" y="179.217" class="st15" width="8.688" height="10.961"/>
	<rect id="sde04" x="319.896" y="170.736" class="st15" width="5.812" height="8.48"/>
	<rect id="s4054" x="340.351" y="170.736" class="st15" width="19.92" height="18.943"/>
	<rect id="sde05" x="360.271" y="170.736" class="st15" width="13.273" height="18.943"/>
	<rect id="s4056" x="395.055" y="147.53" class="st15" width="12.377" height="7.78"/>
	<rect id="s4058" x="395.055" y="138.821" class="st15" width="12.377" height="8.709"/>
	<rect id="s4060" x="395.055" y="127.321" class="st15" width="12.377" height="11.5"/>
	<rect id="s4062" x="395.055" y="115.928" class="st15" width="12.377" height="11.394"/>
	<rect id="s4057" x="378.563" y="144.706" class="st15" width="10.627" height="10.948"/>
	<rect id="s4059" x="378.563" y="130.25" class="st15" width="10.627" height="14.456"/>
	<rect id="s4061" x="378.563" y="115.928" class="st15" width="10.627" height="14.322"/>
	<rect id="s4064" x="395.055" y="92.787" class="st15" width="12.377" height="10.864"/>
	<rect id="s4066" x="395.055" y="84.029" class="st15" width="12.377" height="8.758"/>
	<rect id="s4068" x="395.055" y="72.536" class="st15" width="12.377" height="11.493"/>
	<rect id="s4069" x="395.055" y="63.904" class="st15" width="12.377" height="8.632"/>
	<rect id="s4070" x="395.055" y="55.54" class="st15" width="12.377" height="8.365"/>
	<rect id="s4063" x="378.563" y="89.854" class="st15" width="10.627" height="14.14"/>
	<rect id="s4065" x="378.563" y="75.446" class="st15" width="10.627" height="14.408"/>
	<rect id="s4067" x="378.563" y="64.268" class="st15" width="10.627" height="11.179"/>
	<rect id="s4081" x="295.083" y="21.859" class="st15" width="10.463" height="12.962"/>
	<rect id="s4080" x="305.546" y="21.859" class="st15" width="11.604" height="12.962"/>
	<rect id="s4079" x="317.15" y="21.859" class="st15" width="8.644" height="12.962"/>
	<rect id="s4078" x="325.793" y="21.859" class="st15" width="11.437" height="12.962"/>
	<rect id="s4050" x="291.216" y="40.607" class="st15" width="22.989" height="11.689"/>
	<rect id="s4076" x="331.511" y="40.647" class="st15" width="11.598" height="11.65"/>
	<rect id="s4074" x="343.109" y="40.647" class="st15" width="11.51" height="11.65"/>
	<rect id="s4072" x="354.619" y="40.647" class="st15" width="14.319" height="11.65"/>
	<rect id="s4077" x="337.23" y="21.859" class="st15" width="8.753" height="12.962"/>
	<rect id="s4040" x="291.216" y="92.811" class="st15" width="14.407" height="10.906"/>
	<rect id="s4042" x="291.216" y="84.006" class="st15" width="14.407" height="8.805"/>
	<rect id="s4044" x="291.216" y="75.341" class="st15" width="14.407" height="8.665"/>
	<rect id="s4046" x="291.216" y="63.81" class="st15" width="14.407" height="11.531"/>
	<rect id="s4048" x="291.216" y="52.296" class="st15" width="14.407" height="11.514"/>
	<rect id="s4075" x="345.983" y="21.859" class="st15" width="8.636" height="12.962"/>
	<rect id="s4073" x="354.619" y="21.859" class="st15" width="8.636" height="12.962"/>
	<rect id="s4071" x="363.254" y="21.859" class="st15" width="10.17" height="12.962"/>
	<polygon id="s4222" class="st0" points="133.749,190.009 133.749,224.279 66.725,224.279 66.725,190.404 43.016,190.404 
		43.016,170.637 169.896,170.637 169.896,190.009 	"/>
	<polygon id="ContornoPv4" class="st2" points="29.92,190.404 29.92,121.404 64.249,121.404 64.249,89.867 29.92,89.867 
		29.92,21.859 373.424,21.859 373.424,35.534 379.193,35.534 396.356,49.828 396.356,55.54 407.78,55.54 407.78,155.597 
		393.313,155.597 393.313,161.393 379.501,178.557 373.481,178.557 373.481,190.178 304.796,190.178 304.796,224.309 
		290.502,224.309 290.502,230.049 276.208,244.343 270.469,244.343 270.469,258.833 170.102,258.833 170.102,190.009 
		133.749,190.009 133.749,224.956 66.725,224.956 66.725,190.404 	"/>
</g>
</svg>
